:SAMPLES-PER-SECOND 30
:FULLY-SPECIFIED
:DEGREES
364
root  6.99358 30.6073 -35.9238 89.5421 7.13991 95.0462
Spine  4.94132 4.44418 -5.45017
Spine1  3.91804 -10.9468 4.39672
Neck  3.97569e-016 0 -2.38542e-015
Head  -5.39327 -1.02612 16.3183
R_Clavicle  0.338236 -13.5769 1.0849
R_UpperArm  23.2197 3.02312 9.53932
R_Forearm  10.4141 -39.6801 20.7672
R_Hand  -0.948928 7.82998 -18.4784
L_Clavicle  -0.553704 17.9742 -2.38174
L_UpperArm  -8.4516 9.60701 20.719
L_Forearm  -2.94541 30.7164 36.7625
L_Hand  -0.047741 -1.01355 -1.26087
L_Thigh  0.227551 -14.9679 7.51982
L_Calf  2.7996 -1.83195 14.0597
L_Foot  4.68901 17.7376 1.07871
L_Toe0  0.505157 0.0344461 -6.1361
R_Thigh  8.92959 1.30035 -28.9023
R_Calf  -16.7294 2.1078 6.55159
R_Foot  0.125983 0.0844128 -2.52133
R_Toe0  -10.1098 7.04999 14.9113
365
root  6.87825 30.3827 -34.7019 89.8974 7.9583 96.3533
Spine  3.91178 0.618971 -5.89839
Spine1  3.045 -8.82698 7.04337
Neck  3.97569e-016 0 -2.38542e-015
Head  -2.86703 -0.301127 13.7496
R_Clavicle  0.322675 -14.3021 0.77617
R_UpperArm  24.6297 0.7714 11.646
R_Forearm  7.28248 -41.0673 21.1728
R_Hand  -1.08302 7.76301 -19.5197
L_Clavicle  -0.519429 17.2712 -2.55353
L_UpperArm  -5.06518 7.91447 16.9167
L_Forearm  -7.49339 26.1681 34.3466
L_Hand  -0.0793059 -1.30595 -2.22385
L_Thigh  -0.339088 -15.9302 5.88385
L_Calf  2.79012 -1.31604 10.4052
L_Foot  6.01094 17.1651 5.20182
L_Toe0  0.505157 0.0344461 -6.1361
R_Thigh  10.998 -2.97323 -23.419
R_Calf  -20.0141 -1.55524 -4.84378
R_Foot  3.37173 9.94532 -16.3381
R_Toe0  -18.7151 11.3901 12.5663
366
root  6.758 30.2967 -33.4357 90.7047 8.90693 96.6372
Spine  2.76863 -1.58605 -6.68244
Spine1  2.01413 -6.56737 9.65951
Neck  3.97569e-016 0 -2.38542e-015
Head  -0.645902 0.34752 11.9278
R_Clavicle  0.337444 -15.8543 0.696502
R_UpperArm  24.57 -1.35049 15.1362
R_Forearm  5.91478 -40.6766 21.1457
R_Hand  -1.35618 7.97996 -21.671
L_Clavicle  -0.536717 17.6925 -2.20233
L_UpperArm  -4.59443 4.28156 12.4975
L_Forearm  -7.30261 24.403 31.6497
L_Hand  -0.128139 -0.956873 -3.22749
L_Thigh  0.751271 -16.1997 3.31838
L_Calf  3.03337 -1.00486 8.17205
L_Foot  6.82855 16.7656 7.81015
L_Toe0  0.505157 0.0344461 -6.1361
R_Thigh  13.3761 -5.52384 -19.4963
R_Calf  -16.2349 -4.31498 -13.5358
R_Foot  3.15247 9.03661 -18.1511
R_Toe0  -13.0103 3.42209 -4.25979
367
root  6.61166 30.4209 -32.1359 91.2886 9.52243 96.1737
Spine  1.88504 -2.60492 -7.69401
Spine1  1.30085 -4.42999 11.1673
Neck  3.97569e-016 0 -2.38542e-015
Head  0.589363 0.879419 11.3359
R_Clavicle  0.36984 -17.942 0.820583
R_UpperArm  23.9633 -3.65664 20.3152
R_Forearm  8.99087 -38.9615 20.8428
R_Hand  -1.83346 8.6624 -25.1748
L_Clavicle  -0.560601 18.5162 -1.48116
L_UpperArm  -2.47321 0.262068 7.56393
L_Forearm  -6.03373 23.5565 30.2259
L_Hand  -0.17516 -0.463374 -3.91208
L_Thigh  2.41112 -15.5818 0.269638
L_Calf  2.70131 -0.920552 7.54542
L_Foot  7.46684 16.0372 10.2341
L_Toe0  0.505157 0.0344461 -6.1361
R_Thigh  15.413 -7.30037 -15.6735
R_Calf  -9.73778 -5.98458 -18.9676
R_Foot  2.64447 6.32487 -15.0094
R_Toe0  -0.78064 -0.643355 -18.5671
368
root  6.44211 30.6387 -30.856 90.7348 9.6411 95.8398
Spine  1.39589 -3.92354 -8.85182
Spine1  0.987148 -2.32725 11.0546
Neck  3.97569e-016 0 -2.38542e-015
Head  1.9407 0.922656 12.104
R_Clavicle  0.391798 -19.3864 0.987519
R_UpperArm  24.7486 -6.38422 25.8325
R_Forearm  14.2003 -37.4664 20.8523
R_Hand  -2.30879 9.38447 -28.3302
L_Clavicle  -0.543327 18.4773 -0.797375
L_UpperArm  -2.0607 -1.70863 3.4376
L_Forearm  -3.70873 22.9479 29.2664
L_Hand  -0.170263 -0.436543 -3.79269
L_Thigh  3.10954 -14.6348 -2.72875
L_Calf  2.1801 -0.987304 8.10717
L_Foot  7.9839 15.1435 12.5304
L_Toe0  0.505157 0.0344461 -6.1361
R_Thigh  15.4337 -8.87741 -11.1863
R_Calf  -5.23061 -6.56282 -20.9122
R_Foot  2.2183 4.87503 -11.8361
R_Toe0  -1.82021 -0.272903 -17.3416
369
root  6.25152 30.9879 -29.569 89.3113 9.55482 95.4949
Spine  0.846365 -5.52013 -9.73645
Spine1  0.645043 -0.0155866 9.33609
Neck  3.97569e-016 0 -2.38542e-015
Head  4.57628 0.278773 14.0744
R_Clavicle  0.397068 -19.7575 1.0384
R_UpperArm  27.0744 -9.27505 30.635
R_Forearm  17.3972 -36.67 21.1974
R_Hand  -2.48654 9.88931 -29.3264
L_Clavicle  -0.505064 17.574 -0.439729
L_UpperArm  -4.51008 -1.65813 1.48756
L_Forearm  -1.79024 22.1358 28.0125
L_Hand  -0.132065 -0.654856 -3.09111
L_Thigh  2.96353 -13.3108 -6.22169
L_Calf  2.26047 -1.28339 10.3583
L_Foot  8.35512 14.665 14.0584
L_Toe0  0.505157 0.0344461 -6.1361
R_Thigh  13.6411 -9.66142 -6.58424
R_Calf  -4.052 -6.02006 -19.1242
R_Foot  2.07169 4.1824 -11.6029
R_Toe0  -1.50473 -0.273599 -17.2545
370
root  6.04347 31.4842 -28.2877 88.0957 9.38129 94.7557
Spine  -0.237026 -6.80275 -10.1156
Spine1  -0.184418 2.74553 6.69021
Neck  3.97569e-016 0 -2.38542e-015
Head  8.45806 -0.825542 16.5913
R_Clavicle  0.396112 -19.6888 1.02692
R_UpperArm  28.7145 -11.4921 34.7519
R_Forearm  17.8046 -35.8884 21.4983
R_Hand  -2.36224 10.0498 -28.4157
L_Clavicle  -0.47395 16.6609 -0.354871
L_UpperArm  -7.29287 -1.35396 1.50031
L_Forearm  -1.94544 21.2259 26.6415
L_Hand  -0.11738 -0.761478 -2.82096
L_Thigh  2.42829 -11.3645 -10.2686
L_Calf  3.03191 -1.84541 14.482
L_Foot  8.52801 14.7973 14.4122
L_Toe0  0.505157 0.0344461 -6.1361
R_Thigh  11.8655 -9.3918 -3.02218
R_Calf  -4.94832 -4.33361 -13.646
R_Foot  1.89446 3.16145 -11.776
R_Toe0  -0.36371 -0.261886 -15.8209
371
root  5.81661 31.9513 -27.0523 87.6274 8.9017 94.043
Spine  -1.76905 -8.16541 -10.4259
Spine1  -1.52123 5.95975 4.09372
Neck  3.97569e-016 0 -2.38542e-015
Head  12.7796 -1.9602 18.8136
R_Clavicle  0.397946 -19.6482 1.12096
R_UpperArm  28.1412 -12.4391 38.3879
R_Forearm  17.7658 -34.7224 21.465
R_Hand  -2.1413 9.62449 -27.0698
L_Clavicle  -0.448519 15.876 -0.290929
L_UpperArm  -8.58376 -1.69988 2.20771
L_Forearm  -3.70945 20.6052 25.7252
L_Hand  -0.143939 -0.833889 -3.5004
L_Thigh  1.37436 -9.29021 -14.0235
L_Calf  4.37428 -2.48268 19.2084
L_Foot  8.58749 15.2208 14.1462
L_Toe0  0.505157 0.0344461 -6.1361
R_Thigh  10.8923 -9.09373 -0.768125
R_Calf  -7.22955 -1.59321 -5.02415
R_Foot  1.74949 2.81525 -10.7952
R_Toe0  -1.33549 -0.0923254 -11.7492
372
root  5.58429 32.2694 -25.8419 87.5303 8.17128 93.6465
Spine  -3.39494 -9.81869 -10.986
Spine1  -3.03697 9.35003 2.01994
Neck  3.97569e-016 0 -2.38542e-015
Head  16.7897 -2.97943 20.3621
R_Clavicle  0.401609 -19.4185 1.34585
R_UpperArm  25.2945 -12.3394 41.4705
R_Forearm  19.596 -32.9358 21.1566
R_Hand  -1.92676 9.03455 -25.7411
L_Clavicle  -0.418658 14.8985 -0.173587
L_UpperArm  -8.92638 -2.3208 2.91655
L_Forearm  -5.31046 20.3294 25.323
L_Hand  -0.180428 -0.952027 -4.49719
L_Thigh  0.275999 -7.62798 -17.3021
L_Calf  5.87923 -3.0455 23.5263
L_Foot  8.63764 15.5247 13.9797
L_Toe0  0.505157 0.0344461 -6.1361
R_Thigh  10.0268 -9.09099 0.332862
R_Calf  -9.47253 2.03824 6.2256
R_Foot  1.71865 2.67912 -10.7237
R_Toe0  -3.57136 0.240843 -9.58666
373
root  5.38184 32.4918 -24.6334 87.4355 7.63709 93.1504
Spine  -4.92844 -11.1114 -11.332
Spine1  -4.48172 12.7663 0.418783
Neck  3.97569e-016 0 -2.38542e-015
Head  20.0785 -4.09471 21.2784
R_Clavicle  0.403506 -18.7715 1.55476
R_UpperArm  20.4274 -11.7388 44.0353
R_Forearm  23.6349 -30.0862 20.8458
R_Hand  -1.69103 8.90138 -24.06
L_Clavicle  -0.39105 13.9772 -0.140397
L_UpperArm  -9.05994 -3.00832 3.77618
L_Forearm  -5.93452 20.2188 25.1628
L_Hand  -0.203837 -0.847677 -4.949
L_Thigh  0.128386 -6.23683 -20.7586
L_Calf  6.58446 -3.57531 27.7555
L_Foot  8.57639 15.5348 13.7997
L_Toe0  0.505157 0.0344461 -6.1361
R_Thigh  8.19962 -8.62263 -0.104002
R_Calf  -9.62042 6.28647 19.8189
R_Foot  1.50168 1.14474 -11.537
R_Toe0  -3.37108 -0.0294377 -13.8018
374
root  5.19849 32.5783 -23.4322 87.718 7.55847 92.6479
Spine  -6.40218 -12.2682 -11.0451
Spine1  -5.85071 16.4106 -0.659907
Neck  3.97569e-016 0 -2.38542e-015
Head  22.6134 -5.32397 21.5559
R_Clavicle  0.402782 -17.8362 1.66241
R_UpperArm  14.8352 -10.9313 46.0847
R_Forearm  27.9557 -26.4454 20.6944
R_Hand  -1.46095 8.93389 -22.3864
L_Clavicle  -0.372714 13.4481 -0.2431
L_UpperArm  -8.78147 -4.09712 4.72299
L_Forearm  -6.04314 20.2902 25.2666
L_Hand  -0.213916 -0.433694 -4.74533
L_Thigh  0.580728 -5.02834 -24.2536
L_Calf  6.67447 -3.88174 31.1748
L_Foot  8.53992 15.2506 13.9836
L_Toe0  0.505157 0.0344461 -6.1361
R_Thigh  4.84852 -8.00969 -1.87099
R_Calf  -6.987 10.2486 34.0444
R_Foot  1.30551 0.146095 -11.4143
R_Toe0  -1.65143 -0.295402 -17.655
